<svg width="77" height="77" viewBox="0 0 77 77" fill="none" xmlns="http://www.w3.org/2000/svg">
<path d="M18.7778 25.1875H58.2222M18.7778 42.9375H38.5M74 74L60.8875 66.624C59.8935 66.0649 59.3965 65.7853 58.8754 65.5883C58.4131 65.4134 57.937 65.287 57.4538 65.2106C56.9095 65.125 56.3537 65.125 55.2426 65.125H15.6222C11.204 65.125 8.99492 65.125 7.30741 64.1576C5.823 63.307 4.61616 61.9491 3.85985 60.2793C3 58.3809 3 55.8954 3 50.925V17.2C3 12.2295 3 9.74429 3.85985 7.84584C4.61616 6.17587 5.823 4.81818 7.30741 3.96733C8.99492 3 11.204 3 15.6222 3H61.3778C65.7959 3 68.0052 3 69.6927 3.96733C71.177 4.81818 72.384 6.17587 73.1401 7.84584C74 9.74429 74 12.2296 74 17.2V74Z" stroke="#DDDDDD" stroke-width="5.50146" stroke-linecap="round" stroke-linejoin="round"/>
</svg>
