<svg width="47" height="47" viewBox="0 0 47 47" fill="none" xmlns="http://www.w3.org/2000/svg">
<path d="M4.42035 37.0798C7.30728 42.5385 13.0719 44.5 23.25 44.5C37.3138 44.5 42.951 40.755 44.2132 29.2132M4.42035 37.0798C2.6981 33.823 2 29.322 2 23.25C2 7 7 2 23.25 2C39.5 2 44.5 7 44.5 23.25C44.5 25.4362 44.4095 27.419 44.2132 29.2132M4.42035 37.0798L12.2145 29.2855C14.1671 27.333 17.3329 27.333 19.2855 29.2855L19.7145 29.7145C21.667 31.667 24.833 31.667 26.7855 29.7145L32.2145 24.2855C34.167 22.333 37.333 22.333 39.2855 24.2855L44.2132 29.2132M19.9775 15.365C19.9775 17.9125 17.91 19.98 15.3625 19.98C12.8175 19.98 10.75 17.9125 10.75 15.365C10.75 12.8175 12.8175 10.75 15.3625 10.75C17.91 10.75 19.9775 12.8175 19.9775 15.365Z" stroke="#279DFE" stroke-width="3.75" stroke-linecap="round" stroke-linejoin="round"/>
</svg>
