<svg width="56" height="53" viewBox="0 0 56 53" fill="none" xmlns="http://www.w3.org/2000/svg">
<g filter="url(#filter0_d_725_8)">
<path d="M26.9031 22.2688H11.6991M11.2682 24.2618L8.7563 31.7653C7.38055 35.8748 6.69267 37.9295 7.18632 39.1948C7.615 40.2938 8.53572 41.1268 9.67185 41.444C10.9801 41.809 12.9561 40.9198 16.9081 39.1415L42.2441 27.7403C46.1016 26.0043 48.0303 25.1365 48.6263 23.9308C49.1443 22.8833 49.1443 21.6541 48.6263 20.6066C48.0303 19.4011 46.1016 18.533 42.2441 16.7972L16.8644 5.37637C12.9243 3.60335 10.9543 2.71682 9.64732 3.0805C8.51227 3.39632 7.59165 4.2272 7.16147 5.32402C6.66612 6.587 7.34665 8.63732 8.70772 12.738L11.2731 20.467C11.5068 21.1713 11.6237 21.5235 11.6698 21.8835C11.7108 22.2033 11.7104 22.5268 11.6686 22.8463C11.6215 23.2063 11.5038 23.558 11.2682 24.2618Z" stroke="#279DFE" stroke-width="5" stroke-linecap="round" stroke-linejoin="round" shape-rendering="crispEdges"/>
</g>
<defs>
<filter id="filter0_d_725_8" x="0.5" y="0.500488" width="55.0156" height="51.5239" filterUnits="userSpaceOnUse" color-interpolation-filters="sRGB">
<feFlood flood-opacity="0" result="BackgroundImageFix"/>
<feColorMatrix in="SourceAlpha" type="matrix" values="0 0 0 0 0 0 0 0 0 0 0 0 0 0 0 0 0 0 127 0" result="hardAlpha"/>
<feOffset dy="4"/>
<feGaussianBlur stdDeviation="2"/>
<feComposite in2="hardAlpha" operator="out"/>
<feColorMatrix type="matrix" values="0 0 0 0 0 0 0 0 0 0 0 0 0 0 0 0 0 0 0.25 0"/>
<feBlend mode="normal" in2="BackgroundImageFix" result="effect1_dropShadow_725_8"/>
<feBlend mode="normal" in="SourceGraphic" in2="effect1_dropShadow_725_8" result="shape"/>
</filter>
</defs>
</svg>
